<svg width="134" height="23" viewBox="0 0 134 23" fill="none" xmlns="http://www.w3.org/2000/svg">
<path d="M20.9223 14.0613L11.225 0.121094V7.67337L15.6736 14.0613H20.9223Z" fill="#709FBC"/>
<path d="M6.00029 14.0613L10.4323 7.67337V0.121094L0.734985 14.0613H6.00029Z" fill="#709FBC"/>
<path d="M6.96497 14.061H14.7088L10.8302 8.49219L6.96497 14.061Z" fill="#709FBC"/>
<path d="M16.2268 14.854L20.9781 21.6763V14.854H16.2268Z" fill="#709FBC"/>
<path d="M15.2607 14.854H6.41552L1.18884 22.3866H20.5063L15.2607 14.854Z" fill="#709FBC"/>
<path d="M5.45041 14.854H0.680176V21.7283L5.45041 14.854Z" fill="#709FBC"/>
<path d="M37.0921 16.5087H33.1583L32.6285 18.1729H29.9805L33.5816 7.58154H36.6679L40.2691 18.1729H37.621L37.0913 16.5087H37.0921ZM36.366 14.2391L35.1252 10.351L33.8843 14.2391H36.366Z" fill="#709FBC"/>
<path d="M45.1113 7.58154V18.1729H42.6903V7.58154H45.1113Z" fill="#709FBC"/>
<path d="M62.0567 7.58154V18.1729H60.2411L56.156 12.4235V18.1729H53.735V7.58154H55.5505L59.6357 13.3309V7.58154H62.0567Z" fill="#709FBC"/>
<path d="M72.0424 15.8425V18.1729H65.3849V7.58154H71.9667V9.91187H67.8059V11.6667H71.5883V13.9663H67.8059V15.8425H72.0424Z" fill="#709FBC"/>
<path d="M82.0275 9.91187H79.3037V18.1729H76.8828V9.91187H74.1591V7.58154H82.0267V9.91187H82.0275Z" fill="#709FBC"/>
<path d="M83.8438 7.58154H86.3854L88.2159 14.9951L90.2585 7.58154H92.2254L94.268 14.9951L96.0985 7.58154H98.6401L95.7201 18.1729H92.9664L91.2416 11.9245L89.5167 18.1729H86.763L83.843 7.58154H83.8438Z" fill="#709FBC"/>
<path d="M100.306 12.8779C100.306 9.76084 102.772 7.37061 105.813 7.37061C108.855 7.37061 111.32 9.76084 111.32 12.8779C111.32 15.995 108.855 18.3853 105.813 18.3853C102.772 18.3853 100.306 15.995 100.306 12.8779ZM108.899 12.8779C108.899 10.9867 107.538 9.73089 105.813 9.73089C104.088 9.73089 102.727 10.9867 102.727 12.8779C102.727 14.7692 104.088 16.025 105.813 16.025C107.538 16.025 108.899 14.7692 108.899 12.8779Z" fill="#709FBC"/>
<path d="M117.765 14.6931H116.615V18.1729H114.194V7.58154H118.43C120.443 7.58154 122.061 9.20079 122.061 11.2126C122.061 12.5142 121.275 13.6943 120.109 14.284L122.364 18.1721H119.762L117.765 14.6923V14.6931ZM116.615 12.5749H118.43C119.096 12.5749 119.64 11.9852 119.64 11.2134C119.64 10.4416 119.096 9.85195 118.43 9.85195H116.615V12.5757V12.5749Z" fill="#709FBC"/>
<path d="M130.821 18.1729L127.432 13.271V18.1729H125.011V7.58154H127.432V12.1807L130.67 7.58154H133.424L129.853 12.7412L133.575 18.1729H130.821Z" fill="#709FBC"/>
</svg>
