<svg width="190" height="108" viewBox="0 0 190 108" fill="none" xmlns="http://www.w3.org/2000/svg">
<mask id="path-1-outside-1_2811_1188" maskUnits="userSpaceOnUse" x="14" y="6" width="163" height="96" fill="black">
<rect fill="white" x="14" y="6" width="163" height="96"/>
<path d="M84.9327 44.66H77.6397L74.8347 36.449H61.9317L59.1267 44.66H51.9357L64.2267 11H72.6417L84.9327 44.66ZM63.5127 31.247H73.2537L68.3577 16.559L63.5127 31.247Z"/>
<path d="M96.9635 11V44.66H89.9255V11H96.9635Z"/>
<path d="M134.631 11V44.66H126.573L114.792 24.872L111.885 19.364H111.834L112.038 25.178V44.66H105.714V11H113.721L125.502 30.737L128.409 36.296H128.511L128.307 30.482V11H134.631Z"/>
<path d="M23.806 96.254V91.61H19V84.86H25.372V89.558H38.224V82.106H23.806V77.462H19V66.068H23.806V61.316H39.79V66.068H44.65V72.764H38.224V68.066H25.372V75.464H39.79V80.108H44.65V91.61H39.79V96.254H23.806Z"/>
<path d="M51.2207 96.254V66.068H56.0267V61.316H72.0107V66.068H76.8707V82.106H72.0107V86.858H57.5927V96.254H51.2207ZM57.5927 80.108H70.4447V68.066H57.5927V80.108Z"/>
<path d="M81.8066 96.254V70.766H86.6126V66.068H91.3646V61.316H97.8446V66.068H102.597V70.766H107.457V96.254H101.031V86.858H88.1786V96.254H81.8066ZM88.1786 80.108H101.031V72.764H96.2246V68.066H92.9846V72.764H88.1786V80.108Z"/>
<path d="M118.306 96.254V91.61H113.5V66.068H118.306V61.316H134.29V66.068H139.15V77.462H132.724V68.066H119.872V89.558H132.724V80.108H139.15V91.61H134.29V96.254H118.306Z"/>
<path d="M150.527 96.254V91.61H145.721V66.068H150.527V61.316H166.511V66.068H171.371V72.764H164.945V68.066H152.093V75.464H161.759V82.106H152.093V89.558H164.945V84.86H171.371V91.61H166.511V96.254H150.527Z"/>
</mask>
<path d="M84.9327 44.66H77.6397L74.8347 36.449H61.9317L59.1267 44.66H51.9357L64.2267 11H72.6417L84.9327 44.66ZM63.5127 31.247H73.2537L68.3577 16.559L63.5127 31.247Z" fill="white"/>
<path d="M96.9635 11V44.66H89.9255V11H96.9635Z" fill="white"/>
<path d="M134.631 11V44.66H126.573L114.792 24.872L111.885 19.364H111.834L112.038 25.178V44.66H105.714V11H113.721L125.502 30.737L128.409 36.296H128.511L128.307 30.482V11H134.631Z" fill="white"/>
<path d="M23.806 96.254V91.61H19V84.86H25.372V89.558H38.224V82.106H23.806V77.462H19V66.068H23.806V61.316H39.79V66.068H44.65V72.764H38.224V68.066H25.372V75.464H39.79V80.108H44.65V91.61H39.79V96.254H23.806Z" fill="white"/>
<path d="M51.2207 96.254V66.068H56.0267V61.316H72.0107V66.068H76.8707V82.106H72.0107V86.858H57.5927V96.254H51.2207ZM57.5927 80.108H70.4447V68.066H57.5927V80.108Z" fill="white"/>
<path d="M81.8066 96.254V70.766H86.6126V66.068H91.3646V61.316H97.8446V66.068H102.597V70.766H107.457V96.254H101.031V86.858H88.1786V96.254H81.8066ZM88.1786 80.108H101.031V72.764H96.2246V68.066H92.9846V72.764H88.1786V80.108Z" fill="white"/>
<path d="M118.306 96.254V91.61H113.5V66.068H118.306V61.316H134.29V66.068H139.15V77.462H132.724V68.066H119.872V89.558H132.724V80.108H139.15V91.61H134.29V96.254H118.306Z" fill="white"/>
<path d="M150.527 96.254V91.61H145.721V66.068H150.527V61.316H166.511V66.068H171.371V72.764H164.945V68.066H152.093V75.464H161.759V82.106H152.093V89.558H164.945V84.86H171.371V91.61H166.511V96.254H150.527Z" fill="white"/>
<path d="M84.9327 44.66H77.6397L74.8347 36.449H61.9317L59.1267 44.66H51.9357L64.2267 11H72.6417L84.9327 44.66ZM63.5127 31.247H73.2537L68.3577 16.559L63.5127 31.247Z" stroke="black" stroke-width="10" stroke-linejoin="bevel" mask="url(#path-1-outside-1_2811_1188)"/>
<path d="M96.9635 11V44.66H89.9255V11H96.9635Z" stroke="black" stroke-width="10" stroke-linejoin="bevel" mask="url(#path-1-outside-1_2811_1188)"/>
<path d="M134.631 11V44.66H126.573L114.792 24.872L111.885 19.364H111.834L112.038 25.178V44.66H105.714V11H113.721L125.502 30.737L128.409 36.296H128.511L128.307 30.482V11H134.631Z" stroke="black" stroke-width="10" stroke-linejoin="bevel" mask="url(#path-1-outside-1_2811_1188)"/>
<path d="M23.806 96.254V91.61H19V84.86H25.372V89.558H38.224V82.106H23.806V77.462H19V66.068H23.806V61.316H39.79V66.068H44.65V72.764H38.224V68.066H25.372V75.464H39.79V80.108H44.65V91.61H39.79V96.254H23.806Z" stroke="black" stroke-width="10" stroke-linejoin="bevel" mask="url(#path-1-outside-1_2811_1188)"/>
<path d="M51.2207 96.254V66.068H56.0267V61.316H72.0107V66.068H76.8707V82.106H72.0107V86.858H57.5927V96.254H51.2207ZM57.5927 80.108H70.4447V68.066H57.5927V80.108Z" stroke="black" stroke-width="10" stroke-linejoin="bevel" mask="url(#path-1-outside-1_2811_1188)"/>
<path d="M81.8066 96.254V70.766H86.6126V66.068H91.3646V61.316H97.8446V66.068H102.597V70.766H107.457V96.254H101.031V86.858H88.1786V96.254H81.8066ZM88.1786 80.108H101.031V72.764H96.2246V68.066H92.9846V72.764H88.1786V80.108Z" stroke="black" stroke-width="10" stroke-linejoin="bevel" mask="url(#path-1-outside-1_2811_1188)"/>
<path d="M118.306 96.254V91.61H113.5V66.068H118.306V61.316H134.29V66.068H139.15V77.462H132.724V68.066H119.872V89.558H132.724V80.108H139.15V91.61H134.29V96.254H118.306Z" stroke="black" stroke-width="10" stroke-linejoin="bevel" mask="url(#path-1-outside-1_2811_1188)"/>
<path d="M150.527 96.254V91.61H145.721V66.068H150.527V61.316H166.511V66.068H171.371V72.764H164.945V68.066H152.093V75.464H161.759V82.106H152.093V89.558H164.945V84.86H171.371V91.61H166.511V96.254H150.527Z" stroke="black" stroke-width="10" stroke-linejoin="bevel" mask="url(#path-1-outside-1_2811_1188)"/>
</svg>
