<svg width="48" height="48" viewBox="0 0 48 48" fill="none" xmlns="http://www.w3.org/2000/svg">
  <rect width="48" height="48" rx="12" fill="#2081E2"/>
  <path d="M14.5 26.5L14.64 26.28L19.82 18.28C19.89 18.17 20.05 18.18 20.1 18.3C21.01 20.36 21.79 22.89 21.5 24.41C21.38 24.98 21.02 25.74 20.62 26.43C20.56 26.54 20.5 26.65 20.43 26.75C20.4 26.8 20.34 26.83 20.27 26.83H14.68C14.54 26.83 14.45 26.67 14.5 26.5Z" fill="white"/>
  <path d="M35 28.15V29.48C35 29.56 34.95 29.63 34.88 29.66C34.53 29.82 33.29 30.37 32.82 31.05C31.61 32.75 30.68 35.17 28.6 35.17H19.81C16.68 35.17 14.14 32.61 14.14 29.46V29.34C14.14 29.24 14.22 29.16 14.32 29.16H20.38C20.5 29.16 20.58 29.27 20.57 29.39C20.52 29.74 20.57 30.1 20.71 30.43C20.98 31.08 21.62 31.49 22.32 31.49H25.2V29.4H22.36C22.22 29.4 22.13 29.23 22.21 29.11C22.24 29.06 22.27 29.01 22.31 28.96C22.53 28.65 22.85 28.17 23.16 27.62C23.38 27.23 23.59 26.81 23.76 26.39C23.8 26.3 23.83 26.21 23.86 26.12C23.92 25.96 23.98 25.81 24.02 25.65C24.06 25.52 24.09 25.38 24.12 25.25C24.21 24.82 24.24 24.37 24.24 23.9C24.24 23.71 24.23 23.51 24.21 23.32C24.2 23.11 24.17 22.9 24.14 22.69C24.12 22.5 24.08 22.31 24.04 22.12C23.98 21.81 23.91 21.5 23.82 21.2L23.79 21.08C23.72 20.85 23.66 20.63 23.58 20.4C23.36 19.67 23.1 18.97 22.83 18.33C22.73 18.1 22.62 17.89 22.51 17.67C22.35 17.36 22.19 17.08 22.04 16.81C21.96 16.67 21.87 16.54 21.79 16.41C21.7 16.26 21.6 16.12 21.51 15.99C21.44 15.88 21.36 15.78 21.3 15.68L20.9 15.11C20.84 15.02 20.92 14.9 21.02 14.93L22.4 15.31H22.41C22.41 15.31 22.42 15.31 22.42 15.32L22.64 15.38L22.88 15.45L22.97 15.47V14.14C22.97 13.51 23.47 13 24.1 13C24.41 13 24.69 13.13 24.89 13.33C25.09 13.54 25.22 13.82 25.22 14.14V15.92L25.4 15.97C25.41 15.98 25.43 15.99 25.44 16C25.49 16.04 25.57 16.1 25.66 16.18C25.74 16.25 25.82 16.33 25.92 16.42C26.12 16.6 26.36 16.83 26.61 17.1C26.68 17.17 26.74 17.25 26.81 17.33C27.13 17.69 27.49 18.1 27.82 18.56C27.92 18.7 28.02 18.85 28.12 19C28.22 19.16 28.33 19.31 28.42 19.47C28.55 19.69 28.69 19.92 28.8 20.15C28.86 20.27 28.93 20.4 28.98 20.53C29.14 20.89 29.27 21.27 29.36 21.64C29.39 21.75 29.41 21.87 29.43 21.98V22.01C29.47 22.17 29.48 22.34 29.5 22.52C29.55 22.95 29.53 23.38 29.44 23.82C29.4 24.02 29.35 24.21 29.28 24.41C29.21 24.6 29.14 24.8 29.05 24.99C28.87 25.37 28.66 25.74 28.4 26.08C28.32 26.2 28.22 26.33 28.13 26.45C28.03 26.58 27.92 26.71 27.82 26.83C27.69 26.99 27.55 27.15 27.41 27.3C27.29 27.44 27.16 27.58 27.02 27.71C26.83 27.9 26.64 28.07 26.46 28.23C26.34 28.34 26.21 28.46 26.08 28.56L25.84 28.76C25.79 28.8 25.72 28.83 25.65 28.83H25.2V31.49H27.25C27.71 31.49 28.15 31.32 28.49 31.01C28.62 30.89 29.12 30.45 29.71 29.81C29.73 29.79 29.75 29.77 29.78 29.76L34.8 28.32C34.91 28.29 35 28.38 35 28.5V28.15Z" fill="white"/>
</svg>
