<svg width="46" height="40" viewBox="0 0 46 40" fill="none" xmlns="http://www.w3.org/2000/svg">
<g clip-path="url(#clip0_717_1018)">
<g filter="url(#filter0_i_717_1018)">
<path d="M35.2161 38.8162C34.8001 38.8162 34.3761 38.7202 33.9921 38.5442L23.6001 33.6082C23.3361 33.4802 23.0321 33.4162 22.7361 33.4162C22.4641 33.4162 22.1921 33.4722 21.9441 33.5842L11.8641 37.9282C11.4881 38.0962 11.0801 38.1762 10.6721 38.1762C10.1361 38.1762 9.60814 38.0322 9.14414 37.7602L2.20814 33.6802C1.26414 33.1282 0.728143 32.1042 0.808143 31.0082L2.78414 4.05623C2.88014 2.79223 3.93614 1.80823 5.20014 1.80823C5.58414 1.80823 5.96014 1.89623 6.30414 2.08023L11.4961 4.74423C11.5841 4.79223 11.6881 4.81623 11.7921 4.81623C11.8721 4.81623 11.9521 4.80023 12.0321 4.76823L21.8081 0.968232C22.0881 0.856232 22.3841 0.800232 22.6881 0.800232C22.9921 0.800232 23.2961 0.856232 23.5761 0.968232L33.6081 4.96023C33.7441 5.01623 33.8801 5.04023 34.0241 5.04023C34.2561 5.04023 34.4881 4.96823 34.6801 4.83223L38.5441 2.06423C39.0161 1.72823 39.5601 1.55223 40.1281 1.55223C41.5681 1.55223 42.7681 2.67223 42.8561 4.11223L44.5841 31.1362C44.6481 32.1922 44.1521 33.2242 43.2801 33.8322L36.8481 38.3042C36.3681 38.6402 35.8081 38.8162 35.2241 38.8162H35.2161Z" fill="white"/>
</g>
<path d="M22.6799 1.60012C22.8799 1.60012 23.0799 1.64012 23.2719 1.71212L33.3039 5.70412C33.5359 5.79212 33.7759 5.84012 34.0159 5.84012C34.4079 5.84012 34.8079 5.72012 35.1359 5.48012L38.9999 2.71212C39.3519 2.46412 39.7359 2.35212 40.1199 2.35212C41.0799 2.35212 41.9839 3.08012 42.0559 4.16012L43.7839 31.1841C43.8319 31.9681 43.4719 32.7201 42.8239 33.1681L36.3919 37.6401C36.0399 37.8801 35.6319 38.0081 35.2239 38.0081C34.9279 38.0081 34.6239 37.9441 34.3439 37.8081L23.9519 32.8721C23.5679 32.6881 23.1599 32.6001 22.7519 32.6001C22.3759 32.6001 21.9919 32.6801 21.6399 32.8321L11.5599 37.1761C11.2799 37.2961 10.9839 37.3601 10.6799 37.3601C10.2879 37.3601 9.90388 37.2561 9.55988 37.0561L2.61588 32.9761C1.94388 32.5761 1.55188 31.8321 1.60788 31.0561L3.58388 4.12012C3.64788 3.23212 4.39188 2.61612 5.20788 2.61612C5.45588 2.61612 5.70388 2.67212 5.95188 2.80012L11.1439 5.46412C11.3519 5.56812 11.5839 5.62412 11.8079 5.62412C11.9839 5.62412 12.1679 5.59212 12.3359 5.52812L22.0959 1.72012C22.2879 1.64812 22.4799 1.60812 22.6799 1.60812M22.6799 0.00012207C22.2799 0.00012207 21.8879 0.0721221 21.5119 0.216122L11.8159 4.00012L6.67988 1.36012C6.22388 1.12812 5.71188 1.00012 5.20788 1.00012C3.52788 1.00012 2.11188 2.31212 1.99188 3.99212L0.00787933 30.9441C-0.0961207 32.3441 0.591879 33.6481 1.79988 34.3601L8.74388 38.4401C9.32788 38.7841 9.99988 38.9681 10.6799 38.9681C11.1999 38.9681 11.7119 38.8641 12.1919 38.6561L22.2719 34.3121C22.4239 34.2481 22.5839 34.2161 22.7519 34.2161C22.9359 34.2161 23.1039 34.2561 23.2719 34.3361L33.6639 39.2721C34.1519 39.5041 34.6879 39.6241 35.2239 39.6241C35.9759 39.6241 36.6959 39.4001 37.3039 38.9681L43.7359 34.4961C44.8319 33.7361 45.4639 32.4321 45.3759 31.0961L43.6479 4.07212C43.5279 2.21612 41.9759 0.768122 40.1199 0.768122C39.3839 0.768122 38.6799 1.00012 38.0719 1.43212L34.2079 4.20012C34.1359 4.24812 34.0639 4.26412 34.0239 4.26412C33.9839 4.26412 33.9439 4.26412 33.9039 4.24012L23.8639 0.224122C23.4879 0.0721221 23.0879 0.00012207 22.6799 0.00012207Z" fill="black"/>
<path d="M22.8635 11.3842V4.04822L17.6475 6.33622C17.8635 6.49622 22.0395 9.64822 22.8635 11.3842Z" fill="#C9E991"/>
<path d="M22.9753 11.6722C23.4233 13.3602 22.7513 21.9202 30.2953 16.5122C30.2953 16.5122 32.8793 17.2482 34.9513 15.8002V8.56822L22.8633 4.04822V11.3842C22.9113 11.4802 22.9513 11.5762 22.9753 11.6642V11.6722Z" fill="#B5D67D"/>
<path d="M34.9512 15.8082V29.6722C35.1832 29.5522 35.4312 29.4802 35.7032 29.4562C35.7032 29.4562 33.1352 23.4162 40.3832 23.7202L39.8872 9.22424L37.5112 9.30424C37.4632 12.9682 36.3192 14.8562 34.9592 15.8002L34.9512 15.8082Z" fill="#08B8E2"/>
<path d="M11.7031 15.6482L11.9751 8.29619L6.5671 6.32019L6.0791 15.3842C6.0791 15.3842 10.2391 14.6482 11.7031 15.6402V15.6482Z" fill="#0499D8"/>
<path d="M37.5032 9.30425L39.8792 9.22425L39.6392 5.43225L34.9512 8.58425V15.8163C36.3112 14.8643 37.4632 12.9843 37.5032 9.32025V9.30425Z" fill="#C9E991"/>
<path d="M32.9355 32.0242L34.9515 32.8242V29.6722C34.0155 30.1362 33.3275 31.2482 32.9355 32.0242Z" fill="#B5D67D"/>
<path d="M40.9194 29.5042L40.3754 23.7202C33.1354 23.4162 35.6954 29.4562 35.6954 29.4562C35.4314 29.4722 35.1834 29.5522 34.9434 29.6722V32.8242L35.7674 33.1522L40.9114 29.5042H40.9194Z" fill="#C9E991"/>
<path d="M6.07915 15.3843L5.32715 29.5043L11.0711 32.8483L11.7031 15.6483C10.2471 14.6483 6.11915 15.3843 6.07915 15.3923V15.3843Z" fill="#B5D67D"/>
<path d="M34.9513 29.6723V15.8083C32.8793 17.2483 30.2953 16.5203 30.2953 16.5203C22.7513 21.9283 23.4233 13.3683 22.9753 11.6803C22.9513 11.5923 22.9113 11.4963 22.8633 11.4003V28.4163L23.3513 28.2323L32.9433 32.0323C33.3353 31.2563 34.0233 30.1443 34.9593 29.6803L34.9513 29.6723Z" fill="#0499D8"/>
<path d="M14.9753 20.4563C13.0633 20.1203 13.1753 16.8483 11.8233 15.7283C11.7913 15.6963 11.7433 15.6723 11.7033 15.6483L11.0713 32.8483L21.1033 29.0723L21.0553 28.8723C20.4953 20.5363 16.8873 20.8003 14.9753 20.4643V20.4563Z" fill="#C9E991"/>
<path d="M22.8631 11.3843C22.0391 9.6483 17.8631 6.4963 17.6471 6.3363L11.9751 8.2963L11.7031 15.6483C11.7031 15.6483 11.7911 15.6963 11.8231 15.7283C13.1751 16.8563 13.0631 20.1203 14.9751 20.4563C16.8871 20.7923 20.4951 20.5283 21.0551 28.8643L21.1031 29.0643L22.8631 28.4003V11.3843Z" fill="#08B8E2"/>
<path d="M28.6965 9.61493L29.9867 11.8762L28 12.7265L28.6451 14.1978L30.9286 13.0642L31.9676 15.0481L33.2521 14.421L32.3444 12.6119L34 11.7074L33.3035 10.4592L31.5281 11.3094L30.255 9.0481L28.6965 9.61493Z" fill="#ED546A"/>
<path d="M30.6912 16.5822C31.2205 16.5822 31.6495 16.1531 31.6495 15.6238C31.6495 15.0946 31.2205 14.6655 30.6912 14.6655C30.162 14.6655 29.7329 15.0946 29.7329 15.6238C29.7329 16.1531 30.162 16.5822 30.6912 16.5822Z" fill="#453313"/>
<path d="M27.4583 18.9647C27.9876 18.9647 28.4166 18.5357 28.4166 18.0064C28.4166 17.4772 27.9876 17.0481 27.4583 17.0481C26.9291 17.0481 26.5 17.4772 26.5 18.0064C26.5 18.5357 26.9291 18.9647 27.4583 18.9647Z" fill="#453313"/>
<path d="M23.4583 20.9647C23.9876 20.9647 24.4166 20.5357 24.4166 20.0064C24.4166 19.4771 23.9876 19.0481 23.4583 19.0481C22.9291 19.0481 22.5 19.4771 22.5 20.0064C22.5 20.5357 22.9291 20.9647 23.4583 20.9647Z" fill="#453313"/>
<path d="M19.4583 18.9647C19.9876 18.9647 20.4166 18.5357 20.4166 18.0064C20.4166 17.4771 19.9876 17.0481 19.4583 17.0481C18.9291 17.0481 18.5 17.4771 18.5 18.0064C18.5 18.5357 18.9291 18.9647 19.4583 18.9647Z" fill="#453313"/>
<path d="M16.4583 17.9647C16.9876 17.9647 17.4166 17.5357 17.4166 17.0064C17.4166 16.4772 16.9876 16.0481 16.4583 16.0481C15.9291 16.0481 15.5 16.4772 15.5 17.0064C15.5 17.5357 15.9291 17.9647 16.4583 17.9647Z" fill="#453313"/>
<path d="M14.4583 23.9647C14.9876 23.9647 15.4166 23.5357 15.4166 23.0064C15.4166 22.4771 14.9876 22.0481 14.4583 22.0481C13.9291 22.0481 13.5 22.4771 13.5 23.0064C13.5 23.5357 13.9291 23.9647 14.4583 23.9647Z" fill="#453313"/>
<path d="M13.4583 19.9647C13.9876 19.9647 14.4166 19.5357 14.4166 19.0064C14.4166 18.4772 13.9876 18.0481 13.4583 18.0481C12.9291 18.0481 12.5 18.4772 12.5 19.0064C12.5 19.5357 12.9291 19.9647 13.4583 19.9647Z" fill="#453313"/>
<path d="M9.45832 28.9647C9.98759 28.9647 10.4166 28.5357 10.4166 28.0064C10.4166 27.4772 9.98759 27.0481 9.45832 27.0481C8.92905 27.0481 8.5 27.4772 8.5 28.0064C8.5 28.5357 8.92905 28.9647 9.45832 28.9647Z" fill="#453313"/>
<path d="M13.4583 27.9647C13.9876 27.9647 14.4166 27.5357 14.4166 27.0064C14.4166 26.4772 13.9876 26.0481 13.4583 26.0481C12.9291 26.0481 12.5 26.4772 12.5 27.0064C12.5 27.5357 12.9291 27.9647 13.4583 27.9647Z" fill="#453313"/>
</g>
<defs>
<filter id="filter0_i_717_1018" x="0.800293" y="0.800232" width="43.7896" height="38.0161" filterUnits="userSpaceOnUse" color-interpolation-filters="sRGB">
<feFlood flood-opacity="0" result="BackgroundImageFix"/>
<feBlend mode="normal" in="SourceGraphic" in2="BackgroundImageFix" result="shape"/>
<feColorMatrix in="SourceAlpha" type="matrix" values="0 0 0 0 0 0 0 0 0 0 0 0 0 0 0 0 0 0 127 0" result="hardAlpha"/>
<feOffset dy="-2.5"/>
<feComposite in2="hardAlpha" operator="arithmetic" k2="-1" k3="1"/>
<feColorMatrix type="matrix" values="0 0 0 0 0 0 0 0 0 0 0 0 0 0 0 0 0 0 0.1 0"/>
<feBlend mode="normal" in2="shape" result="effect1_innerShadow_717_1018"/>
</filter>
<clipPath id="clip0_717_1018">
<rect width="45.384" height="39.616" fill="white"/>
</clipPath>
</defs>
</svg>
