<svg width="40" height="40" viewBox="0 0 40 40" fill="none" xmlns="http://www.w3.org/2000/svg">
<mask id="path-1-inside-1_1382_1955" fill="white">
<path d="M23 4C31.5603 4 38.4998 10.4608 38.5 18.4307C38.5 24.3392 34.6854 29.4172 29.2246 31.6494C31.3008 36.2488 36.9986 34.202 33.2061 35.5645C30.1563 36.6601 26.5531 34.5941 25.0947 32.7295C24.4096 32.8157 23.7105 32.8623 23 32.8623C14.4396 32.8623 7.5 26.4007 7.5 18.4307C7.50021 10.4608 14.4397 4 23 4Z"/>
</mask>
<path d="M23 4C31.5603 4 38.4998 10.4608 38.5 18.4307C38.5 24.3392 34.6854 29.4172 29.2246 31.6494C31.3008 36.2488 36.9986 34.202 33.2061 35.5645C30.1563 36.6601 26.5531 34.5941 25.0947 32.7295C24.4096 32.8157 23.7105 32.8623 23 32.8623C14.4396 32.8623 7.5 26.4007 7.5 18.4307C7.50021 10.4608 14.4397 4 23 4Z" fill="#5CC1EE"/>
<path d="M38.5 18.4307H39.5V18.4306L38.5 18.4307ZM29.2246 31.6494L28.8462 30.7238L27.8867 31.116L28.3132 32.0608L29.2246 31.6494ZM33.2061 35.5645L32.868 34.6233V34.6233L33.2061 35.5645ZM25.0947 32.7295L25.8824 32.1134L25.5329 31.6665L24.9699 31.7373L25.0947 32.7295ZM7.5 18.4307L6.5 18.4306V18.4307H7.5ZM23 4V5C31.0765 5 37.4998 11.0792 37.5 18.4307L38.5 18.4307L39.5 18.4306C39.4998 9.8424 32.0441 3 23 3V4ZM38.5 18.4307H37.5C37.5 23.8865 33.9761 28.6268 28.8462 30.7238L29.2246 31.6494L29.603 32.5751C35.3947 30.2076 39.5 24.7919 39.5 18.4307H38.5ZM29.2246 31.6494L28.3132 32.0608C29.547 34.7942 31.8821 35.5431 33.2266 35.8026C33.5571 35.8665 33.8482 35.9044 34.0137 35.9289C34.0569 35.9353 34.0888 35.9403 34.1132 35.9446C34.1391 35.9491 34.1454 35.9509 34.1398 35.9495C34.1363 35.9486 34.1245 35.9456 34.1069 35.9398C34.0904 35.9345 34.0587 35.9234 34.0186 35.9045C33.9865 35.8893 33.7195 35.7698 33.5691 35.4464C33.3609 34.9986 33.5513 34.6102 33.674 34.4489C33.7758 34.3151 33.8834 34.2506 33.8919 34.2452C33.9281 34.2224 33.9278 34.2281 33.8291 34.2687C33.6523 34.3413 33.354 34.4487 32.868 34.6233L33.2061 35.5645L33.5442 36.5056C34.0062 36.3396 34.3595 36.2129 34.5889 36.1187C34.6933 36.0759 34.8348 36.015 34.9578 35.9375C35.0097 35.9048 35.147 35.8158 35.2656 35.6601C35.405 35.4768 35.5992 35.0687 35.3826 34.603C35.2239 34.2618 34.9365 34.1261 34.8726 34.0959C34.7692 34.0471 34.6742 34.0215 34.6228 34.0087C34.5155 33.982 34.395 33.9635 34.307 33.9505C34.1021 33.9201 33.88 33.8918 33.6056 33.8389C32.5302 33.6313 30.9784 33.104 30.1361 31.238L29.2246 31.6494ZM33.2061 35.5645L32.868 34.6233C31.6541 35.0594 30.2604 34.8871 28.9396 34.3346C27.6168 33.7811 26.4957 32.8975 25.8824 32.1134L25.0947 32.7295L24.307 33.3456C25.1522 34.4261 26.5619 35.5078 28.1677 36.1796C29.7755 36.8522 31.7082 37.1651 33.5442 36.5056L33.2061 35.5645ZM25.0947 32.7295L24.9699 31.7373C24.3241 31.8186 23.6667 31.8623 23 31.8623V32.8623V33.8623C23.7543 33.8623 24.4951 33.8128 25.2195 33.7217L25.0947 32.7295ZM23 32.8623V31.8623C14.9234 31.8623 8.5 25.7824 8.5 18.4307H7.5H6.5C6.5 27.019 13.9557 33.8623 23 33.8623V32.8623ZM7.5 18.4307L8.5 18.4307C8.5002 11.0792 14.9235 5 23 5V4V3C13.9559 3 6.50023 9.8424 6.5 18.4306L7.5 18.4307Z" fill="#06AFD6" mask="url(#path-1-inside-1_1382_1955)"/>
<path d="M15.4379 20.3421C16.4022 20.3421 17.1839 19.5604 17.1839 18.5961C17.1839 17.6318 16.4022 16.8501 15.4379 16.8501C14.4736 16.8501 13.6919 17.6318 13.6919 18.5961C13.6919 19.5604 14.4736 20.3421 15.4379 20.3421Z" fill="#453313"/>
<path d="M23.0961 20.3421C24.0604 20.3421 24.8421 19.5604 24.8421 18.5961C24.8421 17.6318 24.0604 16.8501 23.0961 16.8501C22.1318 16.8501 21.3501 17.6318 21.3501 18.5961C21.3501 19.5604 22.1318 20.3421 23.0961 20.3421Z" fill="#453313"/>
<path d="M30.7538 20.3421C31.7181 20.3421 32.4999 19.5604 32.4999 18.5961C32.4999 17.6318 31.7181 16.8501 30.7538 16.8501C29.7895 16.8501 29.0078 17.6318 29.0078 18.5961C29.0078 19.5604 29.7895 20.3421 30.7538 20.3421Z" fill="#453313"/>
<mask id="path-6-inside-2_1382_1955" fill="white">
<path d="M11.5 18C17.0228 18 21.5 21.8056 21.5 26.5C21.5 31.1944 17.0228 35 11.5 35C10.9507 35 10.412 34.9601 9.88672 34.8877C8.65432 36.4054 6.67751 37.7768 4.53613 37.6309C1.09373 37.3963 5.73744 37.7122 6.86719 34.0322C3.67737 32.6119 1.5 29.7731 1.5 26.5C1.5 21.8056 5.97715 18 11.5 18Z"/>
</mask>
<path d="M11.5 18C17.0228 18 21.5 21.8056 21.5 26.5C21.5 31.1944 17.0228 35 11.5 35C10.9507 35 10.412 34.9601 9.88672 34.8877C8.65432 36.4054 6.67751 37.7768 4.53613 37.6309C1.09373 37.3963 5.73744 37.7122 6.86719 34.0322C3.67737 32.6119 1.5 29.7731 1.5 26.5C1.5 21.8056 5.97715 18 11.5 18Z" fill="#DFE2E6"/>
<path d="M9.88672 34.8877L9.996 34.0952L9.54969 34.0337L9.26569 34.3834L9.88672 34.8877ZM4.53613 37.6309L4.48174 38.429V38.429L4.53613 37.6309ZM6.86719 34.0322L7.63196 34.267L7.83992 33.5896L7.1926 33.3014L6.86719 34.0322ZM11.5 18V18.8C16.7079 18.8 20.7 22.3644 20.7 26.5H21.5H22.3C22.3 21.2468 17.3378 17.2 11.5 17.2V18ZM21.5 26.5H20.7C20.7 30.6356 16.7079 34.2 11.5 34.2V35V35.8C17.3378 35.8 22.3 31.7532 22.3 26.5H21.5ZM11.5 35V34.2C10.9894 34.2 10.4873 34.1629 9.996 34.0952L9.88672 34.8877L9.77744 35.6802C10.3367 35.7573 10.9119 35.8 11.5 35.8V35ZM9.88672 34.8877L9.26569 34.3834C8.11318 35.8027 6.363 36.9535 4.59052 36.8327L4.53613 37.6309L4.48174 38.429C6.99202 38.6001 9.19545 37.0081 10.5078 35.392L9.88672 34.8877ZM4.53613 37.6309L4.59052 36.8327C4.15241 36.8029 3.867 36.7833 3.68504 36.7642C3.64158 36.7596 3.609 36.7556 3.58513 36.7521C3.56003 36.7485 3.55201 36.7466 3.55534 36.7473C3.5575 36.7478 3.56655 36.7499 3.58046 36.7543C3.59357 36.7584 3.61862 36.7668 3.65047 36.7814C3.68117 36.7955 3.87964 36.8843 4.00169 37.1232C4.16874 37.4503 4.0581 37.7551 3.9594 37.9042C3.88124 38.0222 3.79263 38.0819 3.78215 38.0892C3.748 38.1131 3.7365 38.1146 3.80051 38.0848C3.85289 38.0604 3.91784 38.0321 4.01265 37.9903C4.10279 37.9506 4.20989 37.9029 4.32778 37.8474C5.26228 37.4076 6.96593 36.4365 7.63196 34.267L6.86719 34.0322L6.10242 33.7974C5.6387 35.3079 4.45562 36.0189 3.64643 36.3997C3.54636 36.4468 3.45335 36.4883 3.36692 36.5264C3.28515 36.5625 3.19704 36.6008 3.12556 36.6341C3.06571 36.662 2.95953 36.7121 2.86556 36.7778C2.82516 36.806 2.71535 36.8849 2.62542 37.0207C2.51494 37.1875 2.40194 37.5087 2.57676 37.851C2.70659 38.1052 2.92296 38.208 2.9824 38.2353C3.0684 38.2748 3.14843 38.2955 3.19696 38.3067C3.29801 38.3299 3.41259 38.3444 3.51818 38.3555C3.73676 38.3784 4.05925 38.4002 4.48174 38.429L4.53613 37.6309ZM6.86719 34.0322L7.1926 33.3014C4.22738 31.9811 2.3 29.3925 2.3 26.5H1.5H0.7C0.7 30.1536 3.12735 33.2427 6.54178 34.7631L6.86719 34.0322ZM1.5 26.5H2.3C2.3 22.3644 6.29214 18.8 11.5 18.8V18V17.2C5.66217 17.2 0.7 21.2468 0.7 26.5H1.5Z" fill="#BDC5CE" mask="url(#path-6-inside-2_1382_1955)"/>
<circle cx="6.88462" cy="26.5001" r="1.38462" fill="#969EAA"/>
<circle cx="11.5001" cy="26.5001" r="1.38462" fill="#969EAA"/>
<circle cx="16.1153" cy="26.5001" r="1.38462" fill="#969EAA"/>
<path d="M22.5 6.00011C16.1025 5.4671 11.7173 10.9026 10.3614 13.9836C10.2389 14.2621 10.5569 14.4551 10.7795 14.2476C19.0937 6.49965 28.3174 6.48479 22.5 6.00011Z" fill="#98DBFF"/>
<mask id="path-12-outside-3_1382_1955" maskUnits="userSpaceOnUse" x="0.5" y="3" width="39" height="36" fill="black">
<rect fill="white" x="0.5" y="3" width="39" height="36"/>
<path d="M23 4C31.5603 4 38.4998 10.4608 38.5 18.4307C38.5 24.3392 34.6854 29.4172 29.2246 31.6494C31.3008 36.2488 36.9986 34.202 33.2061 35.5645C30.1563 36.6601 26.5531 34.5941 25.0947 32.7295C24.4096 32.8157 23.7105 32.8623 23 32.8623C21.5382 32.8623 20.124 32.6725 18.7832 32.3203C16.9593 33.9685 14.3721 35 11.5 35C10.9507 35 10.412 34.9601 9.88672 34.8877C8.65432 36.4054 6.67751 37.7768 4.53613 37.6309C1.09373 37.3963 5.73744 37.7122 6.86719 34.0322C3.67737 32.6119 1.5 29.7731 1.5 26.5C1.5 23.0136 3.9697 20.0182 7.50293 18.707C7.50108 18.6151 7.5 18.523 7.5 18.4307C7.50021 10.4608 14.4397 4 23 4Z"/>
</mask>
<path d="M38.5 18.4307H39.5V18.4306L38.5 18.4307ZM29.2246 31.6494L28.8462 30.7238L27.8867 31.116L28.3132 32.0608L29.2246 31.6494ZM33.2061 35.5645L32.868 34.6233V34.6233L33.2061 35.5645ZM25.0947 32.7295L25.8824 32.1134L25.5329 31.6665L24.9699 31.7373L25.0947 32.7295ZM18.7832 32.3203L19.0373 31.3531L18.5141 31.2157L18.1127 31.5784L18.7832 32.3203ZM9.88672 34.8877L10.0233 33.8971L9.46543 33.8201L9.11043 34.2573L9.88672 34.8877ZM4.53613 37.6309L4.46814 38.6285V38.6285L4.53613 37.6309ZM6.86719 34.0322L7.82315 34.3257L8.0831 33.479L7.27395 33.1187L6.86719 34.0322ZM7.50293 18.707L7.85083 19.6446L8.51706 19.3973L8.50273 18.6869L7.50293 18.707ZM7.5 18.4307L6.5 18.4306V18.4307H7.5ZM23 4V5C31.0765 5 37.4998 11.0792 37.5 18.4307L38.5 18.4307L39.5 18.4306C39.4998 9.8424 32.0441 3 23 3V4ZM38.5 18.4307H37.5C37.5 23.8865 33.9761 28.6268 28.8462 30.7238L29.2246 31.6494L29.603 32.5751C35.3947 30.2076 39.5 24.7919 39.5 18.4307H38.5ZM29.2246 31.6494L28.3132 32.0608C29.547 34.7942 31.8821 35.5431 33.2266 35.8026C33.5571 35.8665 33.8482 35.9044 34.0137 35.9289C34.0569 35.9353 34.0888 35.9403 34.1132 35.9446C34.1391 35.9491 34.1454 35.9509 34.1398 35.9495C34.1363 35.9486 34.1245 35.9456 34.1069 35.9398C34.0904 35.9345 34.0587 35.9234 34.0186 35.9045C33.9865 35.8893 33.7195 35.7698 33.5691 35.4464C33.3609 34.9986 33.5513 34.6102 33.674 34.4489C33.7758 34.3151 33.8834 34.2506 33.8919 34.2452C33.9281 34.2224 33.9278 34.2281 33.8291 34.2687C33.6523 34.3413 33.354 34.4487 32.868 34.6233L33.2061 35.5645L33.5442 36.5056C34.0062 36.3396 34.3595 36.2129 34.5889 36.1187C34.6933 36.0759 34.8348 36.015 34.9578 35.9375C35.0097 35.9048 35.147 35.8158 35.2656 35.6601C35.405 35.4768 35.5992 35.0687 35.3826 34.603C35.2239 34.2618 34.9365 34.1261 34.8726 34.0959C34.7692 34.0471 34.6742 34.0215 34.6228 34.0087C34.5155 33.982 34.395 33.9635 34.307 33.9505C34.1021 33.9201 33.88 33.8918 33.6056 33.8389C32.5302 33.6313 30.9784 33.104 30.1361 31.238L29.2246 31.6494ZM33.2061 35.5645L32.868 34.6233C31.6541 35.0594 30.2604 34.8871 28.9396 34.3346C27.6168 33.7811 26.4957 32.8975 25.8824 32.1134L25.0947 32.7295L24.307 33.3456C25.1522 34.4261 26.5619 35.5078 28.1677 36.1796C29.7755 36.8522 31.7082 37.1651 33.5442 36.5056L33.2061 35.5645ZM25.0947 32.7295L24.9699 31.7373C24.3241 31.8186 23.6667 31.8623 23 31.8623V32.8623V33.8623C23.7543 33.8623 24.4951 33.8128 25.2195 33.7217L25.0947 32.7295ZM23 32.8623V31.8623C21.625 31.8623 20.2962 31.6838 19.0373 31.3531L18.7832 32.3203L18.5292 33.2875C19.9518 33.6612 21.4514 33.8623 23 33.8623V32.8623ZM18.7832 32.3203L18.1127 31.5784C16.4808 33.0531 14.1356 34 11.5 34V35V36C14.6086 36 17.4378 34.8839 19.4537 33.0623L18.7832 32.3203ZM11.5 35V34C10.9991 34 10.5061 33.9636 10.0233 33.8971L9.88672 34.8877L9.75012 35.8783C10.3178 35.9566 10.9022 36 11.5 36V35ZM9.88672 34.8877L9.11043 34.2573C7.9779 35.652 6.28437 36.7477 4.60412 36.6332L4.53613 37.6309L4.46814 38.6285C7.07064 38.8059 9.33074 37.1587 10.663 35.5181L9.88672 34.8877ZM4.53613 37.6309L4.60412 36.6332C4.16406 36.6032 3.88328 36.5839 3.7059 36.5653C3.61259 36.5555 3.58884 36.5498 3.60014 36.5524C3.60329 36.5531 3.6588 36.5651 3.73398 36.5997C3.77595 36.619 4.02627 36.7316 4.1798 37.0323C4.38959 37.443 4.251 37.8261 4.12614 38.0146C4.02698 38.1643 3.91357 38.2413 3.89672 38.2531C3.84656 38.2882 3.82035 38.2961 3.88488 38.2661C3.93488 38.2429 3.99693 38.2158 4.09336 38.1733C4.18397 38.1333 4.29283 38.0849 4.41295 38.0284C5.36311 37.5812 7.13183 36.5776 7.82315 34.3257L6.86719 34.0322L5.91122 33.7387C5.4728 35.1668 4.35479 35.8453 3.56126 36.2188C3.46342 36.2648 3.37218 36.3055 3.28621 36.3434C3.20607 36.3788 3.11506 36.4184 3.0412 36.4528C2.98186 36.4804 2.86097 36.537 2.75099 36.6138C2.70423 36.6465 2.56962 36.7427 2.45867 36.9103C2.32204 37.1166 2.18109 37.5159 2.39865 37.9419C2.55996 38.2578 2.82818 38.3845 2.89889 38.417C3.0028 38.4648 3.09789 38.4891 3.15216 38.5016C3.2657 38.5277 3.39037 38.5431 3.49732 38.5544C3.72048 38.5778 4.04761 38.5999 4.46814 38.6285L4.53613 37.6309ZM6.86719 34.0322L7.27395 33.1187C4.36488 31.8234 2.5 29.2974 2.5 26.5H1.5H0.5C0.5 30.2487 2.98985 33.4004 6.46042 34.9458L6.86719 34.0322ZM1.5 26.5H2.5C2.5 23.5219 4.61762 20.8444 7.85083 19.6446L7.50293 18.707L7.15503 17.7695C3.32178 19.192 0.5 22.5052 0.5 26.5H1.5ZM7.50293 18.707L8.50273 18.6869C8.50099 18.6006 8.5 18.5153 8.5 18.4307H7.5H6.5C6.5 18.5307 6.50116 18.6296 6.50313 18.7272L7.50293 18.707ZM7.5 18.4307L8.5 18.4307C8.5002 11.0792 14.9235 5 23 5V4V3C13.9559 3 6.50023 9.8424 6.5 18.4306L7.5 18.4307Z" fill="black" mask="url(#path-12-outside-3_1382_1955)"/>
</svg>
