<svg width="47" height="40" viewBox="0 0 47 40" fill="none" xmlns="http://www.w3.org/2000/svg">
<g clip-path="url(#clip0_717_1048)">
<path d="M10.4899 39.2903C8.99243 39.2903 7.77171 38.0625 7.77171 36.5579V31.2705C7.793 30.8517 7.85687 30.3833 8.0556 29.9646H3.4282C1.93068 29.9646 0.709961 28.7439 0.709961 27.2463V21.4479C0.709961 19.9504 1.93068 18.7297 3.4282 18.7297H16.7781L12.172 13.4848C11.3913 12.5906 11.4481 11.2563 12.2997 10.433L14.2657 8.54514C14.6773 8.14769 15.2238 7.92768 15.7987 7.92768C15.8413 7.92768 15.8909 7.92768 15.9406 7.92768C18.4105 5.08879 22.9598 0.702698 27.5162 0.702698C28.9782 0.702698 30.3125 1.16402 31.4765 2.06537C31.6965 2.2357 31.8881 2.45571 32.0371 2.72541L32.0584 2.76089L32.0726 2.80348C32.3565 3.49901 32.3636 4.16615 32.0868 4.78361C31.7462 5.42945 31.1855 5.84109 30.5112 5.95465C29.1202 6.19596 28.1053 6.69276 27.4523 7.11859L29.2408 9.4181C29.9506 10.3336 29.8228 11.6537 28.9498 12.4131L28.4814 12.8177L30.419 14.7552C30.7454 14.592 31.1074 14.5068 31.4765 14.5068C32.1152 14.5068 32.7185 14.7552 33.1798 15.2094L44.9825 26.9483C45.898 27.8567 45.9335 29.3187 45.0677 30.2769L41.4694 34.2442C41.0151 34.7481 40.3622 35.0391 39.6809 35.0391C39.0563 35.0391 38.4601 34.7978 38.0059 34.3649L25.9477 22.7396C25.1173 21.9447 24.9896 20.6743 25.5716 19.7304L23.5914 17.6083C23.4566 17.8709 23.2792 18.1051 23.045 18.3038L21.4552 19.6523C21.8881 20.142 22.1294 20.7666 22.1294 21.4408V27.2392C22.1294 27.6864 22.0159 28.1122 21.8171 28.4884H29.1344C29.9151 28.4884 30.6603 28.8361 31.1784 29.4394C31.6894 29.922 31.8029 30.6246 31.8526 31.3131V36.5579C31.8526 38.0625 30.6319 39.2903 29.1344 39.2903H10.4899Z" fill="white"/>
<path d="M27.5089 1.41945C28.8148 1.41945 30 1.83109 31.0362 2.63307C31.1994 2.76082 31.3201 2.90987 31.4123 3.0802C31.6111 3.56281 31.6466 4.03832 31.4336 4.49965C31.2278 4.88999 30.8517 5.18098 30.3903 5.25905C28.3818 5.60681 27.0759 6.46558 26.4727 6.94819C26.4585 6.96238 26.4514 6.99787 26.4727 7.01916L28.6799 9.85096C29.1625 10.4684 29.0774 11.3556 28.4812 11.8737L27.4379 12.7821L30.3265 15.6707C30.6388 15.3868 31.0433 15.2165 31.4691 15.2165C31.9234 15.2165 32.3492 15.3939 32.6686 15.7133L44.4713 27.4521C45.1171 28.0908 45.1455 29.127 44.5351 29.8013L40.9368 33.7686C40.6175 34.1235 40.1561 34.3293 39.6735 34.3293C39.2335 34.3293 38.8148 34.159 38.4954 33.8538L26.4372 22.2285C25.7701 21.5827 25.7417 20.511 26.3804 19.8368L26.5082 19.6948L23.3499 16.3094L23.1441 16.4869C23.1441 16.4869 23.1157 16.5082 23.1015 16.5153C23.1015 16.5791 23.1157 16.6501 23.1015 16.714C23.0731 17.1256 22.8886 17.4947 22.5763 17.7573L20.4258 19.5742C20.4258 19.5742 20.3549 19.6238 20.3194 19.6522C20.9652 19.9858 21.4123 20.6529 21.4123 21.4265V27.225C21.4123 28.1831 20.7381 28.9851 19.8368 29.1838H29.127C29.7303 29.1838 30.2768 29.4606 30.6529 29.9148C31.0007 30.2271 31.093 30.7665 31.1356 31.3414V36.5365C31.1356 37.6508 30.2342 38.5593 29.127 38.5593H10.4897C9.38254 38.5593 8.48119 37.6508 8.48119 36.5365V31.2491C8.51668 30.6742 8.62314 30.149 9.03478 29.8297C9.31157 29.5316 9.67353 29.3187 10.0639 29.2335H3.42796C2.3208 29.2335 1.41945 28.3321 1.41945 27.225V21.4265C1.41945 20.3194 2.3208 19.418 3.42796 19.418H18.3463L12.704 12.995C12.1718 12.3918 12.2143 11.4833 12.7892 10.9226L14.7551 9.03478C15.039 8.76508 15.4081 8.61604 15.7984 8.61604C15.9404 8.61604 16.0752 8.64443 16.2101 8.67991C18.1547 6.39461 22.9312 1.39815 27.516 1.39815M27.5089 0C22.8034 0 18.2044 4.29383 15.6139 7.22498C14.9255 7.26757 14.2725 7.55145 13.7757 8.03407L11.8098 9.92193C10.6813 11.0078 10.6104 12.775 11.6395 13.9532L15.2094 18.0199H3.42796C1.5401 18.0199 0 19.56 0 21.4478V27.2463C0 29.1341 1.5401 30.6742 3.42796 30.6742H7.11143C7.08304 30.8872 7.06884 31.0646 7.06175 31.1852V31.2278V31.2704V36.5578C7.06175 38.4528 8.60185 40 10.4897 40H29.1412C31.0291 40 32.5692 38.4599 32.5692 36.5578V31.2633C32.5408 30.9368 32.5053 30.3903 32.2853 29.851L37.516 34.89C38.105 35.4507 38.8715 35.763 39.6806 35.763C40.5607 35.763 41.4053 35.3868 41.9943 34.741L45.5926 30.7736C46.714 29.5387 46.6643 27.6437 45.4791 26.4656L33.6764 14.7268C33.0873 14.1448 32.3066 13.8183 31.4762 13.8183C31.1781 13.8183 30.8801 13.8609 30.5962 13.9461L29.5174 12.8673C30.582 11.8453 30.7168 10.1703 29.8013 8.99929L28.5167 7.34563C29.0632 7.07594 29.7658 6.82044 30.6317 6.6714C31.5188 6.51526 32.2711 5.96877 32.6969 5.17388L32.7182 5.1384L32.7395 5.09581C32.9879 4.54223 33.1867 3.65507 32.7395 2.555L32.704 2.46984L32.6615 2.39177C32.4627 2.044 32.2143 1.74592 31.9163 1.51881C30.6246 0.518098 29.1483 0.00709723 27.5231 0.00709723L27.5089 0ZM22.406 19.7871L23.4989 18.8573C23.5486 18.8148 23.5983 18.7722 23.648 18.7225L24.7126 19.8652C24.2654 21.0078 24.5138 22.3563 25.4436 23.2576L30.3833 28.0199C29.9858 27.8637 29.5671 27.7786 29.127 27.7786H22.7892C22.8176 27.6011 22.8318 27.4237 22.8318 27.2392V21.4407C22.8318 20.8446 22.6757 20.2768 22.3989 19.78L22.406 19.7871Z" fill="black"/>
<path d="M11.1216 22.2568H20.717V21.4406C20.717 20.7238 20.1351 20.1418 19.4183 20.1418H3.42819C2.71137 20.1418 2.12939 20.7238 2.12939 21.4406V22.2568H5.22379C3.47787 23.7189 12.5694 24.0666 11.1216 22.2568Z" fill="#92B259"/>
<path d="M11.1216 22.2568C12.5694 24.0666 3.47787 23.7189 5.22379 22.2568H2.12939V27.2391C2.12939 27.9559 2.71137 28.5379 3.42819 28.5379H19.4183C20.1351 28.5379 20.717 27.9559 20.717 27.2391V22.2568H11.1216Z" fill="#B5D67D"/>
<path d="M14.5638 30.7027H23.045C22.3495 31.9447 28.9002 31.9731 28.2473 30.7027H30.2913C30.0784 30.2768 29.6454 29.9788 29.1344 29.9788H10.49C10.0074 29.9788 9.59576 30.2414 9.36865 30.6317C10.5894 30.6601 11.7675 30.7027 11.7675 30.7027C10.3907 31.6466 15.2877 31.6466 14.5638 30.7027Z" fill="#A7A7A7"/>
<path d="M28.2543 30.7026C28.9073 31.973 22.3565 31.9446 23.052 30.7026H14.5708C15.2948 31.6465 10.3977 31.6465 11.7745 30.7026C11.7745 30.7026 10.5964 30.6529 9.37567 30.6316C9.26212 30.8232 9.19824 31.0432 9.19824 31.2774V36.572C9.19824 37.2888 9.78022 37.8708 10.497 37.8708H29.1486C29.8654 37.8708 30.4474 37.2888 30.4474 36.572V31.2774C30.4474 31.0716 30.3977 30.88 30.3125 30.7026H28.2685H28.2543Z" fill="#868585"/>
<path d="M24.1587 16.1532L27.5512 19.787L29.5313 17.7643L26.2311 14.2938L24.1587 16.1532Z" fill="#F2C05A"/>
<path d="M25.99 12.3492L23.0518 14.961L24.1589 16.1533L26.2313 14.2938L29.5315 17.7644L30.4613 16.8204L25.99 12.3492Z" fill="#F2B036"/>
<path d="M30.2982 3.88223C30.2982 3.88223 29.2549 2.4202 26.3238 3.21509C24.1236 3.81125 19.4962 8.64447 17.3174 11.0291L21.6041 15.8907C21.8809 16.203 22.3635 16.2385 22.6829 15.9617L28.0129 11.3485C28.3181 11.0788 28.3678 10.6175 28.1194 10.2981L25.9121 7.46633C25.6566 7.13986 25.7063 6.66434 26.0257 6.40884C26.7354 5.83396 28.1407 4.93262 30.2627 4.57066C30.6602 4.49969 30.8802 4.18031 30.8944 3.83964L30.2982 3.88932V3.88223Z" fill="#9C9C9C"/>
<path d="M26.3236 3.21519C29.2547 2.41321 30.298 3.88233 30.298 3.88233L30.8942 3.83265C30.9013 3.59844 30.809 3.35714 30.5961 3.1939C25.5925 -0.695381 18.4314 7.16125 16.6429 9.28333C16.4016 9.57431 16.4087 10.0001 16.6571 10.284L17.3172 11.0292C19.496 8.64458 24.1305 3.81846 26.3236 3.21519Z" fill="#C7C7C7"/>
<path d="M16.3806 9.60978L22.2003 16.1037C22.4984 16.4373 22.4629 16.9483 22.1222 17.2322L19.9718 19.0491C19.6453 19.3259 19.1485 19.2904 18.8646 18.971L13.2223 12.548C12.9455 12.2287 12.9668 11.746 13.2649 11.4551L15.2308 9.5672C15.5502 9.25492 16.0683 9.27621 16.3664 9.60978H16.3806Z" fill="#E8E8E8"/>
<path d="M26.8914 20.3336C26.5223 20.7311 26.5365 21.3485 26.9268 21.7247L38.985 33.35C39.3896 33.7403 40.0283 33.719 40.4045 33.3003L42.7821 30.6814L29.418 17.6509L26.8914 20.3336Z" fill="#513C16"/>
<path d="M43.9746 27.9631L32.1719 16.2243C31.7745 15.834 31.1357 15.841 30.7525 16.2456L29.4253 17.6508L42.7894 30.6814L44.0101 29.3329C44.365 28.9425 44.3508 28.3393 43.9746 27.9631Z" fill="#453313"/>
<ellipse cx="16.5" cy="24.5" rx="1.5" ry="0.5" fill="#92B259"/>
</g>
<defs>
<clipPath id="clip0_717_1048">
<rect width="46.3946" height="40" fill="white"/>
</clipPath>
</defs>
</svg>
